<svg width="105" height="38" viewBox="0 0 105 38" fill="none" xmlns="http://www.w3.org/2000/svg">
<path d="M26.9146 27.79H17.8479L23.4509 35.8478H33.2308L26.9146 27.79Z" fill="#FF0202" stroke="#FF0202"/>
<path d="M15.6504 10.209H21.5105L18.5805 16H15.6504H13.5993H11.5483C11.5483 16 10.2151 16.3116 9.49723 16.9144C8.67629 17.6036 8.12848 18.0279 7.73918 19.0479C7.52387 19.612 7.22337 20.2741 7.15316 20.8766C7.04301 21.8219 7.04215 22.3623 7.15316 23.3149C7.20994 23.8021 7.34688 24.0693 7.44617 24.5341C7.55718 25.0537 8.03219 25.7532 8.03219 25.7532L8.91121 26.9724C8.91121 26.9724 9.39762 27.5898 9.79024 27.8868C10.2041 28.1999 10.9623 28.4964 10.9623 28.4964L12.1343 28.8011H14.7714L12.8672 34.3821C12.5272 34.3717 12.1967 34.3533 11.8982 34.3239C11.0927 34.2446 10.633 34.2192 9.84713 34.0191C8.8975 33.7773 8.38181 33.5505 7.50306 33.1048C6.53279 32.6126 5.99973 32.2852 5.159 31.5808C4.40282 30.9473 4.00999 30.5387 3.40095 29.7521C2.72383 28.8775 2.38232 28.3361 1.93591 27.3138C1.3964 26.0781 1.18857 25.3113 1.05689 23.9611C0.976047 23.1321 0.986195 22.6575 1.05689 21.8275C1.11832 21.1063 1.20028 20.7059 1.3499 19.9988C1.52897 19.1525 1.63236 18.6722 1.93591 17.8653C2.36521 16.7241 2.68767 16.0975 3.40095 15.1222C4.33303 13.8477 5.03578 13.2445 6.33103 12.3791C7.19215 11.8037 7.70998 11.5142 8.6751 11.1599C9.7755 10.7559 10.4426 10.6555 11.6052 10.5503C12.5171 10.4678 15.6504 10.209 15.6504 10.209Z" fill="#185CFF" stroke="#185CFF"/>
<path d="M21.5069 26.517L15.6504 26.3105L18.7827 20.6263L21.711 20.7296L23.7607 20.8018L25.8105 20.8741C25.8105 20.8741 27.1538 20.6096 27.8925 20.0326C28.7372 19.3727 29.2997 18.9679 29.7247 17.9623C29.9597 17.4062 30.2834 16.755 30.3747 16.1554C30.5181 15.2145 30.538 14.6746 30.4607 13.7186C30.4211 13.2297 30.2937 12.9578 30.2108 12.4898C30.1182 11.9666 29.6681 11.2508 29.6681 11.2508L28.8326 10.0014C28.8326 10.0014 28.3682 9.36732 27.9863 9.05665C27.5838 8.72917 26.8365 8.40615 26.8365 8.40615L25.6759 8.06025L23.0405 7.96732L25.1402 2.4569C25.4796 2.47935 25.8092 2.50936 26.1065 2.54923C26.9088 2.65683 27.3672 2.69842 28.1456 2.9261C29.0861 3.20122 29.5935 3.44606 30.456 3.9225C31.4083 4.44857 31.9295 4.79456 32.7449 5.5281C33.4782 6.18788 33.8564 6.61009 34.4374 7.41765C35.0833 8.3155 35.4055 8.86859 35.8156 9.90608C36.3112 11.16 36.4919 11.9337 36.5759 13.2877C36.6275 14.1189 36.6006 14.5929 36.5007 15.4199C36.4139 16.1384 36.3179 16.5358 36.1435 17.2371C35.9347 18.0766 35.8145 18.5529 35.4826 19.3487C35.0134 20.4741 34.6691 21.0889 33.9219 22.0385C32.9455 23.2793 32.2219 23.8573 30.8969 24.6766C30.0161 25.2213 29.4884 25.4923 28.5114 25.8124C27.3974 26.1774 26.7272 26.2542 25.5616 26.3184C24.6473 26.3687 21.5069 26.517 21.5069 26.517Z" fill="#185CFF" stroke="#185CFF"/>
<path d="M56.2784 7.4375H53.7898C53.7443 7.11553 53.6515 6.82955 53.5114 6.57955C53.3712 6.32576 53.1913 6.10985 52.9716 5.93182C52.7519 5.75379 52.4981 5.61742 52.2102 5.52273C51.9261 5.42803 51.6174 5.38068 51.2841 5.38068C50.6818 5.38068 50.1572 5.5303 49.7102 5.82955C49.2633 6.125 48.9167 6.55682 48.6705 7.125C48.4242 7.68939 48.3011 8.375 48.3011 9.18182C48.3011 10.0114 48.4242 10.7083 48.6705 11.2727C48.9205 11.8371 49.2689 12.2633 49.7159 12.5511C50.1629 12.839 50.6799 12.983 51.267 12.983C51.5966 12.983 51.9015 12.9394 52.1818 12.8523C52.4659 12.7652 52.7178 12.6383 52.9375 12.4716C53.1572 12.3011 53.339 12.0947 53.483 11.8523C53.6307 11.6098 53.733 11.3333 53.7898 11.0227L56.2784 11.0341C56.214 11.5682 56.053 12.0833 55.7955 12.5795C55.5417 13.072 55.1989 13.5133 54.767 13.9034C54.339 14.2898 53.8277 14.5966 53.233 14.8239C52.642 15.0473 51.9735 15.1591 51.2273 15.1591C50.1894 15.1591 49.2614 14.9242 48.4432 14.4545C47.6288 13.9848 46.9848 13.3049 46.5114 12.4148C46.0417 11.5246 45.8068 10.447 45.8068 9.18182C45.8068 7.91288 46.0455 6.83333 46.5227 5.94318C47 5.05303 47.6477 4.375 48.4659 3.90909C49.2841 3.43939 50.2045 3.20455 51.2273 3.20455C51.9015 3.20455 52.5265 3.29924 53.1023 3.48864C53.6818 3.67803 54.1951 3.95455 54.642 4.31818C55.089 4.67803 55.4527 5.11932 55.733 5.64205C56.017 6.16477 56.1989 6.76326 56.2784 7.4375ZM57.9972 15V6.27273H60.3438V7.79545H60.4347C60.5938 7.25379 60.8608 6.8447 61.2358 6.56818C61.6108 6.28788 62.0426 6.14773 62.5312 6.14773C62.6525 6.14773 62.7831 6.1553 62.9233 6.17045C63.0634 6.18561 63.1866 6.20644 63.2926 6.23295V8.38068C63.179 8.34659 63.0218 8.31629 62.821 8.28977C62.6203 8.26326 62.4366 8.25 62.2699 8.25C61.9138 8.25 61.5956 8.32765 61.3153 8.48295C61.0388 8.63447 60.8191 8.84659 60.6562 9.11932C60.4972 9.39205 60.4176 9.70644 60.4176 10.0625V15H57.9972ZM68.1151 15.1705C67.2173 15.1705 66.4446 14.9886 65.7969 14.625C65.1529 14.2576 64.6567 13.7386 64.3082 13.0682C63.9598 12.3939 63.7855 11.5966 63.7855 10.6761C63.7855 9.77841 63.9598 8.99053 64.3082 8.3125C64.6567 7.63447 65.1473 7.10606 65.7798 6.72727C66.4162 6.34848 67.1624 6.15909 68.0185 6.15909C68.5942 6.15909 69.1302 6.25189 69.6264 6.4375C70.1264 6.61932 70.562 6.89394 70.9332 7.26136C71.3082 7.62879 71.5999 8.09091 71.8082 8.64773C72.0166 9.20076 72.1207 9.84848 72.1207 10.5909V11.2557H64.7514V9.75568H69.8423C69.8423 9.4072 69.7666 9.09848 69.6151 8.82955C69.4635 8.56061 69.2533 8.35038 68.9844 8.19886C68.7192 8.04356 68.4105 7.96591 68.0582 7.96591C67.6908 7.96591 67.3651 8.05114 67.081 8.22159C66.8007 8.38826 66.581 8.61364 66.4219 8.89773C66.2628 9.17803 66.1813 9.49053 66.1776 9.83523V11.2614C66.1776 11.6932 66.2571 12.0663 66.4162 12.3807C66.5791 12.6951 66.8082 12.9375 67.1037 13.108C67.3991 13.2784 67.7495 13.3636 68.1548 13.3636C68.4238 13.3636 68.67 13.3258 68.8935 13.25C69.117 13.1742 69.3082 13.0606 69.4673 12.9091C69.6264 12.7576 69.7476 12.572 69.831 12.3523L72.0696 12.5C71.956 13.0379 71.723 13.5076 71.3707 13.9091C71.0223 14.3068 70.5715 14.6174 70.0185 14.8409C69.4692 15.0606 68.8348 15.1705 68.1151 15.1705ZM76.1889 15.1648C75.6321 15.1648 75.1359 15.0682 74.7003 14.875C74.2647 14.678 73.92 14.3883 73.6662 14.0057C73.4162 13.6193 73.2912 13.1383 73.2912 12.5625C73.2912 12.0777 73.3802 11.6705 73.5582 11.3409C73.7363 11.0114 73.9787 10.7462 74.2855 10.5455C74.5923 10.3447 74.9408 10.1932 75.331 10.0909C75.7249 9.98864 76.1378 9.91667 76.5696 9.875C77.0772 9.82197 77.4863 9.77273 77.7969 9.72727C78.1075 9.67803 78.3329 9.60606 78.473 9.51136C78.6132 9.41667 78.6832 9.27652 78.6832 9.09091V9.05682C78.6832 8.69697 78.5696 8.41856 78.3423 8.22159C78.1188 8.02462 77.8007 7.92614 77.3878 7.92614C76.9522 7.92614 76.6056 8.02273 76.348 8.21591C76.0904 8.4053 75.92 8.64394 75.8366 8.93182L73.598 8.75C73.7116 8.2197 73.9351 7.76136 74.2685 7.375C74.6018 6.98485 75.0317 6.68561 75.5582 6.47727C76.0885 6.26515 76.7022 6.15909 77.3991 6.15909C77.884 6.15909 78.348 6.21591 78.7912 6.32955C79.2382 6.44318 79.634 6.61932 79.9787 6.85795C80.3272 7.09659 80.6018 7.40341 80.8026 7.77841C81.0033 8.14962 81.1037 8.5947 81.1037 9.11364V15H78.8082V13.7898H78.7401C78.5999 14.0625 78.4124 14.303 78.1776 14.5114C77.9427 14.7159 77.6605 14.8769 77.331 14.9943C77.0014 15.108 76.6207 15.1648 76.1889 15.1648ZM76.8821 13.4943C77.2382 13.4943 77.5526 13.4242 77.8253 13.2841C78.098 13.1402 78.312 12.947 78.4673 12.7045C78.6226 12.4621 78.7003 12.1875 78.7003 11.8807V10.9545C78.6245 11.0038 78.5204 11.0492 78.3878 11.0909C78.259 11.1288 78.1132 11.1648 77.9503 11.1989C77.7874 11.2292 77.6245 11.2576 77.4616 11.2841C77.2988 11.3068 77.151 11.3277 77.0185 11.3466C76.7344 11.3883 76.4863 11.4545 76.2741 11.5455C76.062 11.6364 75.8973 11.7595 75.7798 11.9148C75.6624 12.0663 75.6037 12.2557 75.6037 12.483C75.6037 12.8125 75.723 13.0644 75.9616 13.2386C76.2041 13.4091 76.5109 13.4943 76.8821 13.4943ZM87.6236 6.27273V8.09091H82.3679V6.27273H87.6236ZM83.5611 4.18182H85.9815V12.3182C85.9815 12.5417 86.0156 12.7159 86.0838 12.8409C86.152 12.9621 86.2467 13.0473 86.3679 13.0966C86.4929 13.1458 86.6368 13.1705 86.7997 13.1705C86.9134 13.1705 87.027 13.161 87.1406 13.142C87.2543 13.1193 87.3414 13.1023 87.402 13.0909L87.7827 14.892C87.6615 14.9299 87.491 14.9735 87.2713 15.0227C87.0516 15.0758 86.7846 15.108 86.4702 15.1193C85.8868 15.142 85.3755 15.0644 84.9361 14.8864C84.5005 14.7083 84.1615 14.4318 83.919 14.0568C83.6766 13.6818 83.5573 13.2083 83.5611 12.6364V4.18182ZM93.0497 15.1705C92.1671 15.1705 91.4039 14.983 90.7599 14.608C90.1198 14.2292 89.6255 13.7027 89.277 13.0284C88.9285 12.3504 88.7543 11.5644 88.7543 10.6705C88.7543 9.76894 88.9285 8.98106 89.277 8.30682C89.6255 7.62879 90.1198 7.10227 90.7599 6.72727C91.4039 6.34848 92.1671 6.15909 93.0497 6.15909C93.9323 6.15909 94.6937 6.34848 95.3338 6.72727C95.9777 7.10227 96.474 7.62879 96.8224 8.30682C97.1709 8.98106 97.3452 9.76894 97.3452 10.6705C97.3452 11.5644 97.1709 12.3504 96.8224 13.0284C96.474 13.7027 95.9777 14.2292 95.3338 14.608C94.6937 14.983 93.9323 15.1705 93.0497 15.1705ZM93.0611 13.2955C93.4626 13.2955 93.7978 13.1818 94.0668 12.9545C94.3357 12.7235 94.5384 12.4091 94.6747 12.0114C94.8149 11.6136 94.8849 11.161 94.8849 10.6534C94.8849 10.1458 94.8149 9.69318 94.6747 9.29545C94.5384 8.89773 94.3357 8.58333 94.0668 8.35227C93.7978 8.12121 93.4626 8.00568 93.0611 8.00568C92.6558 8.00568 92.3149 8.12121 92.0384 8.35227C91.7656 8.58333 91.5592 8.89773 91.419 9.29545C91.2827 9.69318 91.2145 10.1458 91.2145 10.6534C91.2145 11.161 91.2827 11.6136 91.419 12.0114C91.5592 12.4091 91.7656 12.7235 92.0384 12.9545C92.3149 13.1818 92.6558 13.2955 93.0611 13.2955ZM98.919 15V6.27273H101.266V7.79545H101.357C101.516 7.25379 101.783 6.8447 102.158 6.56818C102.533 6.28788 102.964 6.14773 103.453 6.14773C103.574 6.14773 103.705 6.1553 103.845 6.17045C103.985 6.18561 104.108 6.20644 104.214 6.23295V8.38068C104.101 8.34659 103.944 8.31629 103.743 8.28977C103.542 8.26326 103.358 8.25 103.192 8.25C102.836 8.25 102.518 8.32765 102.237 8.48295C101.961 8.63447 101.741 8.84659 101.578 9.11932C101.419 9.39205 101.339 9.70644 101.339 10.0625V15H98.919ZM46.0114 34V22.3636H50.6023C51.4811 22.3636 52.2311 22.5208 52.8523 22.8352C53.4773 23.1458 53.9527 23.5871 54.2784 24.1591C54.608 24.7273 54.7727 25.3958 54.7727 26.1648C54.7727 26.9375 54.6061 27.6023 54.2727 28.1591C53.9394 28.7121 53.4564 29.1364 52.8239 29.4318C52.1951 29.7273 51.4337 29.875 50.5398 29.875H47.4659V27.8977H50.142C50.6117 27.8977 51.0019 27.8333 51.3125 27.7045C51.6231 27.5758 51.8542 27.3826 52.0057 27.125C52.161 26.8674 52.2386 26.5473 52.2386 26.1648C52.2386 25.7784 52.161 25.4527 52.0057 25.1875C51.8542 24.9223 51.6212 24.7216 51.3068 24.5852C50.9962 24.4451 50.6042 24.375 50.1307 24.375H48.4716V34H46.0114ZM52.2955 28.7045L55.1875 34H52.4716L49.642 28.7045H52.2955ZM60.3026 34.1705C59.4048 34.1705 58.6321 33.9886 57.9844 33.625C57.3404 33.2576 56.8442 32.7386 56.4957 32.0682C56.1473 31.3939 55.973 30.5966 55.973 29.6761C55.973 28.7784 56.1473 27.9905 56.4957 27.3125C56.8442 26.6345 57.3348 26.1061 57.9673 25.7273C58.6037 25.3485 59.3499 25.1591 60.206 25.1591C60.7817 25.1591 61.3177 25.2519 61.8139 25.4375C62.3139 25.6193 62.7495 25.8939 63.1207 26.2614C63.4957 26.6288 63.7874 27.0909 63.9957 27.6477C64.2041 28.2008 64.3082 28.8485 64.3082 29.5909V30.2557H56.9389V28.7557H62.0298C62.0298 28.4072 61.9541 28.0985 61.8026 27.8295C61.651 27.5606 61.4408 27.3504 61.1719 27.1989C60.9067 27.0436 60.598 26.9659 60.2457 26.9659C59.8783 26.9659 59.5526 27.0511 59.2685 27.2216C58.9882 27.3883 58.7685 27.6136 58.6094 27.8977C58.4503 28.178 58.3688 28.4905 58.3651 28.8352V30.2614C58.3651 30.6932 58.4446 31.0663 58.6037 31.3807C58.7666 31.6951 58.9957 31.9375 59.2912 32.108C59.5866 32.2784 59.937 32.3636 60.3423 32.3636C60.6113 32.3636 60.8575 32.3258 61.081 32.25C61.3045 32.1742 61.4957 32.0606 61.6548 31.9091C61.8139 31.7576 61.9351 31.572 62.0185 31.3523L64.2571 31.5C64.1435 32.0379 63.9105 32.5076 63.5582 32.9091C63.2098 33.3068 62.759 33.6174 62.206 33.8409C61.6567 34.0606 61.0223 34.1705 60.3026 34.1705ZM68.3764 34.1648C67.8196 34.1648 67.3234 34.0682 66.8878 33.875C66.4522 33.678 66.1075 33.3883 65.8537 33.0057C65.6037 32.6193 65.4787 32.1383 65.4787 31.5625C65.4787 31.0777 65.5677 30.6705 65.7457 30.3409C65.9238 30.0114 66.1662 29.7462 66.473 29.5455C66.7798 29.3447 67.1283 29.1932 67.5185 29.0909C67.9124 28.9886 68.3253 28.9167 68.7571 28.875C69.2647 28.822 69.6738 28.7727 69.9844 28.7273C70.295 28.678 70.5204 28.6061 70.6605 28.5114C70.8007 28.4167 70.8707 28.2765 70.8707 28.0909V28.0568C70.8707 27.697 70.7571 27.4186 70.5298 27.2216C70.3063 27.0246 69.9882 26.9261 69.5753 26.9261C69.1397 26.9261 68.7931 27.0227 68.5355 27.2159C68.2779 27.4053 68.1075 27.6439 68.0241 27.9318L65.7855 27.75C65.8991 27.2197 66.1226 26.7614 66.456 26.375C66.7893 25.9848 67.2192 25.6856 67.7457 25.4773C68.276 25.2652 68.8897 25.1591 69.5866 25.1591C70.0715 25.1591 70.5355 25.2159 70.9787 25.3295C71.4257 25.4432 71.8215 25.6193 72.1662 25.858C72.5147 26.0966 72.7893 26.4034 72.9901 26.7784C73.1908 27.1496 73.2912 27.5947 73.2912 28.1136V34H70.9957V32.7898H70.9276C70.7874 33.0625 70.5999 33.303 70.3651 33.5114C70.1302 33.7159 69.848 33.8769 69.5185 33.9943C69.1889 34.108 68.8082 34.1648 68.3764 34.1648ZM69.0696 32.4943C69.4257 32.4943 69.7401 32.4242 70.0128 32.2841C70.2855 32.1402 70.4995 31.947 70.6548 31.7045C70.8101 31.4621 70.8878 31.1875 70.8878 30.8807V29.9545C70.812 30.0038 70.7079 30.0492 70.5753 30.0909C70.4465 30.1288 70.3007 30.1648 70.1378 30.1989C69.9749 30.2292 69.812 30.2576 69.6491 30.2841C69.4863 30.3068 69.3385 30.3277 69.206 30.3466C68.9219 30.3883 68.6738 30.4545 68.4616 30.5455C68.2495 30.6364 68.0848 30.7595 67.9673 30.9148C67.8499 31.0663 67.7912 31.2557 67.7912 31.483C67.7912 31.8125 67.9105 32.0644 68.1491 32.2386C68.3916 32.4091 68.6984 32.4943 69.0696 32.4943ZM77.5895 22.3636V34H75.169V22.3636H77.5895ZM79.5284 34V25.2727H81.8352V26.8125H81.9375C82.1193 26.3011 82.4223 25.8977 82.8466 25.6023C83.2708 25.3068 83.7784 25.1591 84.3693 25.1591C84.9678 25.1591 85.4773 25.3087 85.8977 25.608C86.3182 25.9034 86.5985 26.3049 86.7386 26.8125H86.8295C87.0076 26.3125 87.3295 25.9129 87.7955 25.6136C88.2652 25.3106 88.8201 25.1591 89.4602 25.1591C90.2746 25.1591 90.9356 25.4186 91.4432 25.9375C91.9545 26.4527 92.2102 27.1837 92.2102 28.1307V34H89.7955V28.608C89.7955 28.1231 89.6667 27.7595 89.4091 27.517C89.1515 27.2746 88.8295 27.1534 88.4432 27.1534C88.0038 27.1534 87.661 27.2936 87.4148 27.5739C87.1686 27.8504 87.0455 28.2159 87.0455 28.6705V34H84.6989V28.5568C84.6989 28.1288 84.5758 27.7879 84.3295 27.5341C84.0871 27.2803 83.767 27.1534 83.3693 27.1534C83.1004 27.1534 82.858 27.2216 82.642 27.358C82.4299 27.4905 82.2614 27.678 82.1364 27.9205C82.0114 28.1591 81.9489 28.4394 81.9489 28.7614V34H79.5284Z" fill="#10102C"/>
</svg>
