<svg width="38" height="36" viewBox="0 0 38 36" fill="none" xmlns="http://www.w3.org/2000/svg">
<path d="M26.9146 26.79H17.8479L23.4509 34.8478H33.2308L26.9146 26.79Z" fill="#FF0202" stroke="#FF0202"/>
<path d="M15.6504 9.20898H21.5105L18.5805 15H15.6504H13.5993H11.5483C11.5483 15 10.2151 15.3116 9.49723 15.9144C8.67629 16.6036 8.12848 17.0279 7.73918 18.0479C7.52387 18.612 7.22337 19.2741 7.15316 19.8766C7.04301 20.8219 7.04215 21.3623 7.15316 22.3149C7.20994 22.8021 7.34688 23.0693 7.44617 23.5341C7.55718 24.0537 8.03219 24.7532 8.03219 24.7532L8.91121 25.9724C8.91121 25.9724 9.39762 26.5898 9.79024 26.8868C10.2041 27.1999 10.9623 27.4964 10.9623 27.4964L12.1343 27.8011H14.7714L12.8672 33.3821C12.5272 33.3717 12.1967 33.3533 11.8982 33.3239C11.0927 33.2446 10.633 33.2192 9.84713 33.0191C8.8975 32.7773 8.38181 32.5505 7.50306 32.1048C6.53279 31.6126 5.99973 31.2852 5.159 30.5808C4.40282 29.9473 4.00999 29.5387 3.40095 28.7521C2.72383 27.8775 2.38232 27.3361 1.93591 26.3138C1.3964 25.0781 1.18857 24.3113 1.05689 22.9611C0.976047 22.1321 0.986195 21.6575 1.05689 20.8275C1.11832 20.1063 1.20028 19.7059 1.3499 18.9988C1.52897 18.1525 1.63236 17.6722 1.93591 16.8653C2.36521 15.7241 2.68767 15.0975 3.40095 14.1222C4.33303 12.8477 5.03578 12.2445 6.33103 11.3791C7.19215 10.8037 7.70998 10.5142 8.6751 10.1599C9.7755 9.75591 10.4426 9.65548 11.6052 9.55033C12.5171 9.46784 15.6504 9.20898 15.6504 9.20898Z" fill="#185CFF" stroke="#185CFF"/>
<path d="M21.5069 25.517L15.6504 25.3105L18.7827 19.6263L21.711 19.7296L23.7607 19.8018L25.8105 19.8741C25.8105 19.8741 27.1538 19.6096 27.8925 19.0326C28.7372 18.3727 29.2997 17.9679 29.7247 16.9623C29.9597 16.4062 30.2834 15.755 30.3747 15.1554C30.5181 14.2145 30.538 13.6746 30.4607 12.7186C30.4211 12.2297 30.2937 11.9578 30.2108 11.4898C30.1182 10.9666 29.6681 10.2508 29.6681 10.2508L28.8326 9.00142C28.8326 9.00142 28.3682 8.36732 27.9863 8.05665C27.5838 7.72917 26.8365 7.40615 26.8365 7.40615L25.6759 7.06025L23.0405 6.96732L25.1402 1.4569C25.4796 1.47935 25.8092 1.50936 26.1065 1.54923C26.9088 1.65683 27.3672 1.69842 28.1456 1.9261C29.0861 2.20122 29.5935 2.44606 30.456 2.9225C31.4083 3.44857 31.9295 3.79456 32.7449 4.5281C33.4782 5.18788 33.8564 5.61009 34.4374 6.41765C35.0833 7.3155 35.4055 7.86859 35.8156 8.90608C36.3112 10.16 36.4919 10.9337 36.5759 12.2877C36.6275 13.1189 36.6006 13.5929 36.5007 14.4199C36.4139 15.1384 36.3179 15.5358 36.1435 16.2371C35.9347 17.0766 35.8145 17.5529 35.4826 18.3487C35.0134 19.4741 34.6691 20.0889 33.9219 21.0385C32.9455 22.2793 32.2219 22.8573 30.8969 23.6766C30.0161 24.2213 29.4884 24.4923 28.5114 24.8124C27.3974 25.1774 26.7272 25.2542 25.5616 25.3184C24.6473 25.3687 21.5069 25.517 21.5069 25.517Z" fill="#185CFF" stroke="#185CFF"/>
</svg>
